v -3.498011 3.640538 0.018466
v -5.878139 3.844012 0.026200
v -4.689720 2.475495 -0.005778
v -3.970921 3.651578 -0.847205
v -4.690075 2.909833 -1.006632
v -4.022950 3.296269 -0.911681
v -4.262833 3.647224 -1.021495
v -4.323723 3.471483 -0.948112
v -4.246524 2.993196 -0.958186
v -4.435234 3.334970 -1.028465
v -4.625660 3.294273 -1.035406
v -3.696308 3.087860 0.016445
v -3.744213 3.636364 -0.594514
v -3.860559 3.190116 -0.597710
v -3.578734 3.627697 -0.309234
v -3.603717 3.012901 -0.359593
v -4.685933 2.757833 -0.614959
v -4.170395 2.842083 -0.610965
v -3.959606 2.457896 0.023607
v -4.075555 2.658001 -0.321186
v -4.720316 2.494097 -0.356047
v -5.214962 3.745576 -0.842454
v -4.989488 3.086106 -0.933456
v -4.787446 3.363997 -1.001939
v -5.227404 3.366379 -0.974294
v -4.940867 3.503408 -1.187914
v -4.986946 3.681515 -1.146512
v -5.298533 2.645913 -0.001076
v -5.132696 2.845103 -0.671414
v -5.196827 2.817022 -0.304292
v -5.569495 3.832975 -0.708816
v -5.514251 3.286808 -0.688897
v -5.781392 3.197477 0.026643
v -5.618764 3.252597 -0.294783
v -5.582639 3.792684 -0.301360
v -3.633353 3.651390 0.690648
v -4.691627 2.549779 0.796148
v -3.840147 3.182295 0.629632
v -3.410590 3.617552 0.403549
v -3.746775 3.120873 0.329319
v -4.096284 2.680346 0.766701
v -4.122998 2.705134 0.334354
v -4.685297 2.553780 0.358599
v -3.994148 3.643506 0.811590
v -4.016937 3.291606 0.915123
v -4.266008 3.635919 0.993900
v -4.301433 3.471247 1.024879
v -4.643732 2.990442 0.882088
v -4.306494 3.072979 0.862405
v -4.439077 3.343768 1.020164
v -4.619034 3.330918 0.971641
v -5.635886 3.797640 0.753985
v -5.093657 2.939591 0.610393
v -5.174387 2.809903 0.338457
v -5.524091 3.265071 0.712782
v -5.567133 3.266290 0.351554
v -5.697276 3.810009 0.371769
v -5.001185 3.094917 0.921601
v -4.768226 3.360551 0.980057
v -5.229776 3.744865 0.861979
v -5.229426 3.370026 0.955933
v -4.986450 3.498443 1.251132
v -4.925609 3.684920 1.010508
v -4.527379 4.671071 0.006534
v -4.555898 4.290064 -0.885208
v -5.177538 4.060465 -0.963269
v -4.870515 3.850007 -1.002666
v -4.843756 4.209724 -0.846743
v -4.723932 3.947558 -0.971915
v -4.609252 4.003410 -1.074856
v -5.457386 4.278289 0.010904
v -5.287100 4.148075 -0.609361
v -5.557874 4.375282 -0.345400
v -4.546163 4.525269 -0.637709
v -5.051189 4.637128 -0.781035
v -5.072546 4.678207 0.013519
v -4.994544 4.541039 -0.302158
v -4.531006 4.847534 -0.346420
v -4.274046 4.206233 -0.890002
v -4.400054 3.947608 -1.171827
v -4.596152 3.640710 -1.120054
v -3.989949 3.971330 -0.926759
v -4.280465 3.832216 -1.198870
v -4.048569 4.598282 0.029237
v -4.159800 4.390848 -0.627303
v -3.994928 4.641246 -0.366146
v -3.793308 4.097650 -0.642098
v -3.603715 4.234121 0.007489
v -3.593946 4.242530 -0.386946
v -4.538976 4.529469 0.644799
v -5.399995 4.242367 0.713015
v -5.523258 4.354221 0.420061
v -4.985849 4.563394 0.731484
v -5.132045 4.800712 0.412624
v -4.523934 4.635060 0.328071
v -5.114141 4.039359 0.889721
v -4.862911 3.847029 0.995801
v -4.574628 4.335740 0.907876
v -4.863882 4.270420 0.952970
v -4.713326 3.937136 0.994198
v -4.543832 4.029086 1.197276
v -4.145386 4.403415 0.648986
v -4.030310 4.678135 0.400609
v -3.724119 4.171041 0.731835
v -3.665404 4.193539 0.330510
v -4.287571 4.187886 0.864143
v -4.438449 3.935510 1.041558
v -4.079260 3.943525 0.810154
v -4.596152 3.640710 1.120054
v -4.314545 3.806168 0.989839
vt 0.504495 0.000000
vt 0.504495 0.525093
vt 0.504495 0.263521
vt 0.201530 0.000000
vt 0.201530 0.263521
vt 0.201530 0.088461
vt 0.103875 0.000000
vt 0.103875 0.088461
vt 0.201530 0.172638
vt 0.103875 0.172638
vt 0.103875 0.263521
vt 0.504495 0.088461
vt 0.303629 0.000000
vt 0.303629 0.088461
vt 0.405452 0.000000
vt 0.405452 0.088461
vt 0.303629 0.263521
vt 0.303629 0.172638
vt 0.504495 0.172638
vt 0.405452 0.172638
vt 0.405452 0.263521
vt 0.201530 0.525093
vt 0.201530 0.348836
vt 0.103875 0.348836
vt 0.201530 0.440250
vt 0.103875 0.440250
vt 0.103875 0.525093
vt 0.504495 0.348836
vt 0.303629 0.348836
vt 0.405452 0.348836
vt 0.303629 0.525093
vt 0.303629 0.440250
vt 0.504495 0.440250
vt 0.405452 0.440250
vt 0.405452 0.525093
vt 0.698613 0.000000
vt 0.698613 0.263521
vt 0.698613 0.088461
vt 0.601683 0.000000
vt 0.601683 0.088461
vt 0.698613 0.172638
vt 0.601683 0.172638
vt 0.601683 0.263521
vt 0.797081 0.000000
vt 0.797081 0.088461
vt 0.898314 1.000000
vt 0.898314 0.088461
vt 0.797081 0.263521
vt 0.797081 0.172638
vt 0.898314 0.172638
vt 0.898314 0.263521
vt 0.698613 0.525093
vt 0.698613 0.348836
vt 0.601683 0.348836
vt 0.698613 0.440250
vt 0.601683 0.440250
vt 0.601683 0.525093
vt 0.797081 0.348836
vt 0.898314 0.348836
vt 0.797081 0.525093
vt 0.797081 0.440250
vt 0.898314 0.440250
vt 0.898314 0.525093
vt 0.504495 0.760812
vt 0.201530 0.760812
vt 0.201530 0.602363
vt 0.103875 0.602363
vt 0.201530 0.683977
vt 0.103875 0.683977
vt 0.103875 0.760812
vt 0.504495 0.602363
vt 0.303629 0.602363
vt 0.405452 0.602363
vt 0.303629 0.760812
vt 0.303629 0.683977
vt 0.504495 0.683977
vt 0.405452 0.683977
vt 0.405452 0.760812
vt 0.201530 0.833766
vt 0.103875 0.833766
vt 0.000000 0.000000
vt 0.201530 0.915519
vt 0.103875 0.915519
vt 0.504495 0.833766
vt 0.303629 0.833766
vt 0.405452 0.833766
vt 0.303629 0.915519
vt 0.504495 0.915519
vt 0.405452 0.915519
vt 0.698613 0.760812
vt 0.698613 0.602363
vt 0.601683 0.602363
vt 0.698613 0.683977
vt 0.601683 0.683977
vt 0.601683 0.760812
vt 0.797081 0.602363
vt 0.898314 0.602363
vt 0.797081 0.760812
vt 0.797081 0.683977
vt 0.898314 0.683977
vt 0.898314 0.760812
vt 0.698613 0.833766
vt 0.601683 0.833766
vt 0.698613 0.915519
vt 0.601683 0.915519
vt 0.797081 0.833766
vt 0.898314 0.833766
vt 0.797081 0.915519
vt 1.000000 1.000000
vt 0.898314 0.915519
vt 1.000000 0.525093
vt 0.000000 0.088461
vt 0.000000 0.172638
vt 0.000000 0.263521
vt 0.000000 0.348836
vt 0.000000 0.440250
vt 1.000000 0.263521
vt 0.898314 0.000000
vt 1.000000 0.088461
vt 1.000000 0.172638
vt 1.000000 0.348836
vt 1.000000 0.440250
vt 0.504495 1.000000
vt 0.000000 0.525093
vt 0.000000 0.602363
vt 0.000000 0.683977
vt 0.201530 1.000000
vt 0.000000 0.760812
vt 0.000000 0.833766
vt 0.103875 1.000000
vt 0.000000 0.915519
vt 0.303629 1.000000
vt 0.405452 1.000000
vt 1.000000 0.760812
vt 1.000000 0.602363
vt 1.000000 0.683977
vt 0.698613 1.000000
vt 0.601683 1.000000
vt 1.000000 0.833766
vt 0.797081 1.000000
vt 1.000000 0.915519
vn 0.091475 -0.036128 0.995152
vn 0.472699 0.118593 0.873208
vn 0.474842 0.157544 0.865855
vn -0.407955 0.454217 0.791997
vn -0.140185 -0.089486 0.986073
vn -0.896319 -0.442728 0.024591
vn -0.943859 0.248907 -0.217197
vn -0.841978 -0.355581 -0.405752
vn 0.496540 -0.852867 0.161449
vn -0.134746 -0.989494 0.052397
vn 0.339934 -0.773801 -0.534488
vn 0.381689 -0.460629 -0.801333
vn -0.091424 -0.505683 -0.857861
vn 0.273818 -0.065638 -0.959539
vn 0.280446 -0.425721 -0.860297
vn 0.691847 -0.175578 -0.700372
vn 0.547607 -0.256260 -0.796529
vn 0.002550 -0.066387 -0.997791
vn 0.289298 -0.131542 -0.948158
vn -0.127318 -0.128697 -0.983477
vn 0.946107 -0.070956 -0.315986
vn 0.981830 -0.149206 -0.117247
vn 0.904425 -0.358564 0.231187
vn 0.780276 -0.065360 -0.622011
vn 0.669601 -0.351929 -0.654049
vn 0.834308 -0.362281 -0.415551
vn 0.447844 -0.700790 -0.555273
vn -0.053634 -0.885764 -0.461027
vn -0.120623 -0.868714 -0.480402
vn -0.270657 -0.245379 -0.930878
vn -0.429565 -0.202801 -0.879969
vn -0.675657 0.156467 -0.720421
vn -0.358762 -0.316309 -0.878202
vn -0.053420 -0.403961 -0.913215
vn -0.281921 0.286213 -0.915753
vn -0.574475 -0.814106 0.084912
vn -0.495311 -0.760017 -0.420763
vn -0.554379 -0.713421 -0.428597
vn -0.810116 -0.327812 -0.486058
vn -0.700316 0.234060 -0.674370
vn -0.962977 0.118554 -0.242118
vn -0.060802 -0.388840 0.919297
vn 0.032869 -0.387355 0.921345
vn 0.538190 -0.517007 0.665624
vn -0.183212 -0.823123 0.537497
vn 0.542190 -0.802591 0.248753
vn 0.963212 -0.096808 0.250700
vn 0.709485 0.001990 0.704718
vn 0.692607 -0.421212 0.585556
vn 0.835061 -0.534284 0.131202
vn -0.210645 -0.933980 0.288636
vn 0.363580 -0.026147 0.931196
vn 0.402244 0.119322 0.907724
vn 0.422233 -0.243231 0.873246
vn 0.194747 -0.380142 0.904193
vn 0.067477 -0.223665 0.972328
vn -0.834073 -0.430842 0.344524
vn -0.673667 -0.433580 0.598482
vn -0.751377 0.036158 0.658882
vn -0.563406 -0.692272 0.450925
vn -0.510934 -0.766087 0.389944
vn -0.917059 0.063502 0.393663
vn 0.194221 -0.440652 0.876415
vn -0.256555 -0.510580 0.820663
vn -0.648957 -0.145405 0.746802
vn -0.396038 0.096430 0.913157
vn 0.831555 0.362553 -0.420800
vn 0.846386 0.526483 0.080294
vn -0.253223 0.951744 -0.173381
vn -0.052181 0.995347 0.081003
vn -0.433090 0.889773 -0.144005
vn -0.376304 0.361326 -0.853135
vn 0.018954 0.411965 -0.911003
vn -0.106641 0.633472 -0.766382
vn -0.442501 0.290801 -0.848309
vn 0.073018 0.468380 -0.880505
vn -0.388755 0.429977 -0.814855
vn -0.795078 0.591242 -0.135221
vn -0.669302 0.487658 -0.560558
vn -0.727863 0.621167 -0.290459
vn -0.349218 0.699287 -0.623734
vn 0.189293 0.619409 -0.761906
vn 0.007031 0.998883 -0.046726
vn 0.363621 -0.202737 -0.909218
vn 0.634397 0.286955 -0.717773
vn 0.269677 0.665768 -0.695721
vn 0.012593 0.450861 -0.892506
vn 0.475124 0.873592 0.105332
vn 0.347866 0.633514 -0.691122
vn 0.496168 0.791084 -0.357776
vn 0.689400 0.333787 -0.642895
vn 0.030518 0.195609 0.980207
vn -0.441612 0.079464 0.893680
vn -0.277729 0.949214 0.147847
vn -0.209783 0.688803 0.693932
vn 0.265132 0.807273 0.527272
vn -0.618931 0.416961 0.665633
vn -0.785686 0.546073 0.290693
vn 0.097272 0.968146 0.230719
vn -0.279029 0.221450 0.934399
vn -0.303063 0.140975 0.942486
vn -0.327248 0.312714 0.891694
vn 0.316013 0.640725 0.699719
vn 0.839095 0.508969 0.192015
vn 0.496430 0.347228 0.795607
vn 0.194997 0.628731 0.752777
vn 0.335091 0.902200 0.271569
vn 0.624166 0.177193 0.760933
vn 0.450836 0.433356 0.780352
vn 0.404224 0.223807 0.886856
f 109/109/1 46/46/2 110/110/3
f 109/111/1 63/63/4 62/62/5
f 33/33/6 2/2/7 34/34/8
f 19/19/9 3/3/10 20/20/11
f 9/9/12 5/5/13 10/10/14
f 7/7/15 4/4/16 6/6/17
f 81/81/18 7/7/15 8/8/19
f 6/6/17 9/9/12 8/8/19
f 10/10/14 81/112/18 8/8/19
f 11/11/20 81/113/18 10/10/14
f 15/15/21 1/1/22 12/12/23
f 4/4/16 13/13/24 14/14/25
f 13/13/24 15/15/21 16/16/26
f 9/9/12 18/18/27 17/17/28
f 6/6/17 14/14/25 18/18/27
f 12/12/23 19/19/9 16/16/26
f 14/14/25 16/16/26 20/20/11
f 18/18/27 20/20/11 21/21/29
f 26/26/30 25/25/31 22/22/32
f 11/11/20 5/5/13 23/23/33
f 81/114/18 11/11/20 24/24/34
f 24/24/34 23/23/33 25/25/31
f 81/115/18 24/24/34 26/26/30
f 27/27/35 81/116/18 26/26/30
f 3/3/10 28/28/36 21/21/29
f 5/5/13 17/17/28 29/29/37
f 17/17/28 21/21/29 30/30/38
f 25/25/31 32/32/39 31/31/40
f 23/23/33 29/29/37 32/32/39
f 28/28/36 33/33/6 30/30/38
f 29/29/37 30/30/38 34/34/8
f 32/32/39 34/34/8 35/35/41
f 109/117/1 51/51/42 50/50/43
f 41/41/44 37/37/45 42/42/46
f 39/39/47 36/36/48 38/38/49
f 1/1/22 39/39/47 40/40/50
f 38/38/49 41/41/44 40/40/50
f 12/12/23 40/40/50 42/42/46
f 19/19/9 42/42/46 43/43/51
f 46/118/2 109/119/1 47/47/52
f 36/36/48 44/44/53 45/45/54
f 44/44/53 46/118/2 47/47/52
f 41/41/44 49/49/55 48/48/56
f 38/38/49 45/45/54 49/49/55
f 109/120/1 50/50/43 47/47/52
f 45/45/54 47/47/52 50/50/43
f 49/49/55 50/50/43 51/51/42
f 56/56/57 55/55/58 52/52/59
f 43/43/51 37/37/45 53/53/60
f 3/3/10 43/43/51 54/54/61
f 54/54/61 53/53/60 55/55/58
f 28/28/36 54/54/61 56/56/57
f 33/33/6 56/56/57 57/57/62
f 109/121/1 59/59/63 51/51/42
f 37/37/45 48/48/56 58/58/64
f 48/48/56 51/51/42 59/59/63
f 55/55/58 61/61/65 60/60/66
f 53/53/60 58/58/64 61/61/65
f 109/122/1 62/62/5 59/59/63
f 58/58/64 59/59/63 62/62/5
f 61/61/65 62/62/5 63/63/4
f 89/89/67 88/88/68 1/123/22
f 76/76/69 64/64/70 77/77/71
f 69/69/72 68/68/73 65/65/74
f 27/27/35 22/22/32 66/66/75
f 81/124/18 27/27/35 67/67/76
f 67/67/76 66/66/75 68/68/73
f 81/125/18 67/67/76 69/69/72
f 81/126/18 69/69/72 70/70/77
f 35/35/41 2/2/7 71/71/78
f 22/22/32 31/31/40 72/72/79
f 31/31/40 35/35/41 73/73/80
f 68/68/73 75/75/81 74/74/82
f 66/66/75 72/72/79 75/75/81
f 71/71/78 76/76/69 73/73/80
f 72/72/79 73/73/80 77/77/71
f 75/75/81 77/77/71 78/78/83
f 83/83/84 82/82/85 4/127/16
f 70/70/77 65/65/74 79/79/86
f 81/128/18 70/70/77 80/80/87
f 80/80/87 79/79/86 82/82/85
f 81/129/18 80/80/87 83/83/84
f 7/130/15 81/131/18 83/83/84
f 78/78/83 64/64/70 84/84/88
f 65/65/74 74/74/82 85/85/89
f 74/74/82 78/78/83 86/86/90
f 82/82/85 87/87/91 13/132/24
f 79/79/86 85/85/89 87/87/91
f 86/86/90 84/84/88 88/88/68
f 85/85/89 86/86/90 89/89/67
f 87/87/91 89/89/67 15/133/21
f 109/134/1 101/101/92 100/100/93
f 94/94/94 93/93/95 90/90/96
f 57/57/62 52/52/59 91/91/97
f 2/2/7 57/57/62 92/92/98
f 92/92/98 91/91/97 93/93/95
f 71/71/78 92/92/98 94/94/94
f 76/76/69 94/94/94 95/95/99
f 109/135/1 97/97/100 63/63/4
f 52/52/59 60/60/66 96/96/101
f 60/60/66 63/63/4 97/97/100
f 93/93/95 99/99/102 98/98/103
f 91/91/97 96/96/101 99/99/102
f 109/136/1 100/100/93 97/97/100
f 96/96/101 97/97/100 100/100/93
f 99/99/102 100/100/93 101/101/92
f 105/105/104 104/104/105 36/137/48
f 95/95/99 90/90/96 102/102/106
f 64/64/70 95/95/99 103/103/107
f 103/103/107 102/102/106 104/104/105
f 84/84/88 103/103/107 105/105/104
f 88/88/68 105/105/104 39/138/47
f 109/139/1 107/107/108 101/101/92
f 90/90/96 98/98/103 106/106/109
f 98/98/103 101/101/92 107/107/108
f 104/104/105 108/108/110 44/140/53
f 102/102/106 106/106/109 108/108/110
f 109/141/1 110/110/3 107/107/108
f 106/106/109 107/107/108 110/110/3
f 108/108/110 110/110/3 46/46/2
f 2/2/7 35/35/41 34/34/8
f 3/3/10 21/21/29 20/20/11
f 5/5/13 11/11/20 10/10/14
f 6/6/17 8/8/19 7/7/15
f 9/9/12 10/10/14 8/8/19
f 12/12/23 16/16/26 15/15/21
f 14/14/25 6/6/17 4/4/16
f 16/16/26 14/14/25 13/13/24
f 17/17/28 5/5/13 9/9/12
f 18/18/27 9/9/12 6/6/17
f 19/19/9 20/20/11 16/16/26
f 20/20/11 18/18/27 14/14/25
f 21/21/29 17/17/28 18/18/27
f 22/22/32 27/27/35 26/26/30
f 23/23/33 24/24/34 11/11/20
f 25/25/31 26/26/30 24/24/34
f 28/28/36 30/30/38 21/21/29
f 29/29/37 23/23/33 5/5/13
f 30/30/38 29/29/37 17/17/28
f 31/31/40 22/22/32 25/25/31
f 32/32/39 25/25/31 23/23/33
f 33/33/6 34/34/8 30/30/38
f 34/34/8 32/32/39 29/29/37
f 35/35/41 31/31/40 32/32/39
f 37/37/45 43/43/51 42/42/46
f 38/38/49 40/40/50 39/39/47
f 40/40/50 12/12/23 1/1/22
f 41/41/44 42/42/46 40/40/50
f 42/42/46 19/19/9 12/12/23
f 43/43/51 3/3/10 19/19/9
f 45/45/54 38/38/49 36/36/48
f 47/47/52 45/45/54 44/44/53
f 48/48/56 37/37/45 41/41/44
f 49/49/55 41/41/44 38/38/49
f 50/50/43 49/49/55 45/45/54
f 51/51/42 48/48/56 49/49/55
f 52/52/59 57/57/62 56/56/57
f 53/53/60 54/54/61 43/43/51
f 54/54/61 28/28/36 3/3/10
f 55/55/58 56/56/57 54/54/61
f 56/56/57 33/33/6 28/28/36
f 57/57/62 2/2/7 33/33/6
f 58/58/64 53/53/60 37/37/45
f 59/59/63 58/58/64 48/48/56
f 60/60/66 52/52/59 55/55/58
f 61/61/65 55/55/58 53/53/60
f 62/62/5 61/61/65 58/58/64
f 63/63/4 60/60/66 61/61/65
f 1/123/22 15/133/21 89/89/67
f 64/64/70 78/78/83 77/77/71
f 65/65/74 70/70/77 69/69/72
f 66/66/75 67/67/76 27/27/35
f 68/68/73 69/69/72 67/67/76
f 71/71/78 73/73/80 35/35/41
f 72/72/79 66/66/75 22/22/32
f 73/73/80 72/72/79 31/31/40
f 74/74/82 65/65/74 68/68/73
f 75/75/81 68/68/73 66/66/75
f 76/76/69 77/77/71 73/73/80
f 77/77/71 75/75/81 72/72/79
f 78/78/83 74/74/82 75/75/81
f 4/127/16 7/130/15 83/83/84
f 79/79/86 80/80/87 70/70/77
f 82/82/85 83/83/84 80/80/87
f 84/84/88 86/86/90 78/78/83
f 85/85/89 79/79/86 65/65/74
f 86/86/90 85/85/89 74/74/82
f 13/132/24 4/127/16 82/82/85
f 87/87/91 82/82/85 79/79/86
f 88/88/68 89/89/67 86/86/90
f 89/89/67 87/87/91 85/85/89
f 15/133/21 13/132/24 87/87/91
f 90/90/96 95/95/99 94/94/94
f 91/91/97 92/92/98 57/57/62
f 92/92/98 71/71/78 2/2/7
f 93/93/95 94/94/94 92/92/98
f 94/94/94 76/76/69 71/71/78
f 95/95/99 64/64/70 76/76/69
f 96/96/101 91/91/97 52/52/59
f 97/97/100 96/96/101 60/60/66
f 98/98/103 90/90/96 93/93/95
f 99/99/102 93/93/95 91/91/97
f 100/100/93 99/99/102 96/96/101
f 101/101/92 98/98/103 99/99/102
f 36/137/48 39/138/47 105/105/104
f 102/102/106 103/103/107 95/95/99
f 103/103/107 84/84/88 64/64/70
f 104/104/105 105/105/104 103/103/107
f 105/105/104 88/88/68 84/84/88
f 39/138/47 1/123/22 88/88/68
f 106/106/109 102/102/106 90/90/96
f 107/107/108 106/106/109 98/98/103
f 44/140/53 36/137/48 104/104/105
f 108/108/110 104/104/105 102/102/106
f 110/110/3 108/108/110 106/106/109
f 46/46/2 44/140/53 108/108/110